<svg xmlns="http://www.w3.org/2000/svg" viewBox="0 0 17 12"><g fill="none" fill-rule="evenodd"><path fill="#31CC93" stroke="#31CC93" stroke-width="1.186" d="M1.8 10.837L5.296 5.17 7.045 7.6 10.19.718l5.595 10.119z" stroke-linecap="round" stroke-linejoin="round"/><g fill="#000"><path d="M.5 11.422a.271.271 0 0 1-.163-.056c-.14-.105-.179-.32-.088-.481l2.966-5.291a.297.297 0 0 1 .234-.158.286.286 0 0 1 .248.122l2.819 3.846a.387.387 0 0 1-.035.49c-.127.126-.316.107-.424-.04L3.5 6.366.753 11.264a.293.293 0 0 1-.252.158z"/><path d="M13.959 11.152a.291.291 0 0 1-.25-.154L8.581 2.183l-2.875 6.45c-.076.17-.257.238-.405.15-.147-.089-.205-.3-.13-.47L8.28 1.341a.302.302 0 0 1 .25-.187.296.296 0 0 1 .266.153l5.412 9.302a.384.384 0 0 1-.081.484.272.272 0 0 1-.168.059z"/><path d="M9.585 6.106h-.01a.286.286 0 0 1-.221-.126l-.694-.971-.466.712a.288.288 0 0 1-.236.139c-.092.008-.182-.048-.24-.133l-.721-1.064a.386.386 0 0 1 .05-.488c.13-.12.32-.094.423.058l.48.709.46-.703a.29.29 0 0 1 .233-.139.33.33 0 0 1 .237.126l.72 1.007.607-.742a.273.273 0 0 1 .425-.014c.12.132.126.353.012.492l-.84 1.028a.283.283 0 0 1-.219.109z"/></g><path d="M0-2h14.433v16.709H0z"/></g></svg>