<svg xmlns="http://www.w3.org/2000/svg" viewBox="672 1879 57 55"><g fill="none" fill-rule="evenodd" transform="translate(672 1879)"><rect width="50" height="32" x="7" y="14" fill="#31CC93" rx="3"/><g fill="#000"><path d="M44.614 18.452h-15.94c-.632 0-1.145-.51-1.145-1.14 0-.63.513-1.14 1.146-1.14h15.939c.633 0 1.146.51 1.146 1.14 0 .63-.513 1.14-1.146 1.14z"/><path d="M50.273 43.58H26.316c-.633 0-1.146-.51-1.146-1.14 0-.63.513-1.14 1.146-1.14h23.957c.115 0 .462 0 .54-.04.07-.05.44-.448.785-3.287.768-6.327.768-16.618 0-22.94-.416-3.42-.758-3.42-1.324-3.42H26.316c-.633 0-1.146-.51-1.146-1.14 0-.631.513-1.14 1.146-1.14h23.957c2.532 0 3.136 1.599 3.599 5.426.788 6.473.788 17.01 0 23.486-.456 3.763-1.056 5.335-3.599 5.335zm-44.61 0h-.978c-2.542 0-3.143-1.572-3.6-5.335C.3 31.77.3 21.235 1.085 14.76c.465-3.827 1.068-5.427 3.6-5.427h.978c.634 0 1.146.51 1.146 1.14 0 .63-.512 1.14-1.146 1.14h-.978c-.567 0-.909 0-1.324 3.421-.768 6.325-.768 16.615 0 22.94.344 2.84.715 3.238.786 3.29.077.037.424.037.538.037h.978c.634 0 1.146.51 1.146 1.14 0 .63-.512 1.14-1.146 1.14zm13.455 4.611H12.86c-2.073 0-3.76-1.696-3.76-3.783V8.668c0-2.086 1.687-3.782 3.76-3.782h6.258c2.073 0 3.76 1.696 3.76 3.783v35.74c0 2.085-1.687 3.782-3.76 3.782zM12.86 7.166c-.809 0-1.468.674-1.468 1.503v35.74c0 .828.66 1.502 1.468 1.502h6.258c.809 0 1.468-.674 1.468-1.503V8.668c0-.828-.66-1.502-1.468-1.502H12.86z"/><path d="M30.875 25.293h-2.2c-.633 0-1.146-.51-1.146-1.14 0-.63.513-1.14 1.146-1.14h2.2c.633 0 1.146.51 1.146 1.14 0 .63-.513 1.14-1.146 1.14zm0 4.56h-2.2c-.633 0-1.146-.51-1.146-1.14 0-.63.513-1.14 1.146-1.14h2.2c.633 0 1.146.51 1.146 1.14 0 .63-.513 1.14-1.146 1.14zm0 4.56h-2.2c-.633 0-1.146-.51-1.146-1.14 0-.63.513-1.14 1.146-1.14h2.2c.633 0 1.146.51 1.146 1.14 0 .63-.513 1.14-1.146 1.14zm6.877-9.12H35.55c-.633 0-1.146-.51-1.146-1.14 0-.63.513-1.14 1.146-1.14h2.202c.633 0 1.146.51 1.146 1.14 0 .63-.513 1.14-1.146 1.14zm0 4.56H35.55c-.633 0-1.146-.51-1.146-1.14 0-.63.513-1.14 1.146-1.14h2.202c.633 0 1.146.51 1.146 1.14 0 .63-.513 1.14-1.146 1.14zm0 4.56H35.55c-.633 0-1.146-.51-1.146-1.14 0-.63.513-1.14 1.146-1.14h2.202c.633 0 1.146.51 1.146 1.14 0 .63-.513 1.14-1.146 1.14zm6.875-9.12h-2.202c-.633 0-1.146-.51-1.146-1.14 0-.63.513-1.14 1.146-1.14h2.202c.633 0 1.146.51 1.146 1.14 0 .63-.513 1.14-1.146 1.14zm0 4.56h-2.202c-.633 0-1.146-.51-1.146-1.14 0-.63.513-1.14 1.146-1.14h2.202c.633 0 1.146.51 1.146 1.14 0 .63-.513 1.14-1.146 1.14zm0 4.56h-2.202c-.633 0-1.146-.51-1.146-1.14 0-.63.513-1.14 1.146-1.14h2.202c.633 0 1.146.51 1.146 1.14 0 .63-.513 1.14-1.146 1.14z"/></g></g></svg>