<svg xmlns="http://www.w3.org/2000/svg" viewBox="961 1878 58 55"><g fill="none" fill-rule="evenodd" transform="translate(961 1878)"><rect width="51" height="25" x="7" y="12" fill="#31CC93" rx="1"/><g fill="#000"><path d="M33.923 34.375H2.292a1.145 1.145 0 1 1 0-2.292h31.63a1.145 1.145 0 1 1 0 2.292zm19.931 0H39.14a1.145 1.145 0 1 1 0-2.292h13.568V9.167H2.292a1.145 1.145 0 1 1 0-2.292h51.562c.634 0 1.146.512 1.146 1.146v25.208c0 .634-.512 1.146-1.146 1.146z"/><path d="M42.59 49.215a1.707 1.707 0 0 1-1.47-.848l-2.18-3.832-1.275 1.278c-.909.909-2.657.35-2.87-.913l-2.698-15.466a1.678 1.678 0 0 1 .367-1.377c.597-.71 1.746-.802 2.44-.172L46.72 38.497a1.694 1.694 0 0 1-.806 2.925l-1.121.222 2.146 2.833c.282.374.396.848.32 1.305-.078.456-.34.866-.723 1.123l-2.999 2.02a1.701 1.701 0 0 1-.946.29zm-3.397-7.699a1.141 1.141 0 0 1 .996.58l2.6 4.57 1.943-1.307-2.873-3.791a1.146 1.146 0 0 1 .691-1.815l1.753-.347-9.653-8.67 2.207 12.644 1.526-1.528a1.14 1.14 0 0 1 .81-.336zm.87-16.267a1.82 1.82 0 0 1-1.47-.75L34.136 19c-.542-.733-.497-1.673.067-2.312.324-.406.89-.622 1.367-.622l8.988-.001a1.8 1.8 0 0 1 1.613.981 1.842 1.842 0 0 1-.145 1.908l-4.528 5.594c-.304.42-.852.7-1.434.7zm-3.5-6.891l3.5 4.32 3.5-4.321h-7zm-10.21 15.769a1.145 1.145 0 0 1-1.146-1.146V8.02a1.145 1.145 0 1 1 2.292 0v24.96c0 .633-.513 1.146-1.146 1.146z"/></g></g></svg>