<svg width="12" height="12" viewBox="0 0 12 12" xmlns="http://www.w3.org/2000/svg"><title>thin 0748 home energy heating winter fire</title><g fill="none" fill-rule="evenodd"><g fill="#000"><path d="M10.755 11.5h-9.5a.25.25 0 0 1-.25-.25V4.357a.25.25 0 1 1 .5 0V11h9V4.357a.25.25 0 1 1 .5 0v6.893a.25.25 0 0 1-.25.25z"/><path d="M10.255 4.144a.25.25 0 0 1-.25-.25V1h-2v.769a.25.25 0 1 1-.5 0V.75a.25.25 0 0 1 .25-.25h2.5a.25.25 0 0 1 .25.25v3.144a.25.25 0 0 1-.25.25z"/><path d="M.28 5.433a.25.25 0 0 1-.163-.44L5.842.076a.25.25 0 0 1 .326 0l5.725 4.917a.25.25 0 0 1-.327.38L6.005.595.443 5.372a.249.249 0 0 1-.163.06z"/><path d="M5.957 9.527a2.57 2.57 0 0 1-1.233-.297c-1.089-.484-.992-1.528-.914-2.366.042-.45.08-.877-.037-1.2a.3.3 0 0 1 .103-.345.305.305 0 0 1 .166-.054c.27 0 .683.644.963 1.145.019-.127.035-.266.052-.408.1-.846.225-1.9 1.062-2.402a.36.36 0 0 1 .155-.043c.167 0 .303.135.303.302 0 .318 0 1.113.125 1.754.2-.367.524-.762 1.005-.842a.31.31 0 0 1 .323.172.304.304 0 0 1-.045.322c-.39.455-.218.943-.038 1.46.105.298.204.58.191.859.04.47-.106.917-.425 1.262-.393.426-1.05.681-1.756.681zM4.35 6.29a8.631 8.631 0 0 1-.042.621c-.088.949-.089 1.548.64 1.873.29.161.64.244 1.008.244.57 0 1.09-.194 1.39-.52.224-.243.323-.55.294-.914.007-.214-.076-.451-.164-.703-.131-.373-.283-.806-.208-1.25-.176.247-.298.56-.352.764a.25.25 0 0 1-.463.052c-.227-.433-.347-1.13-.371-2.173-.37.441-.453 1.144-.528 1.778-.056.47-.104.875-.272 1.13a.252.252 0 0 1-.13.1c-.067.036-.131.032-.2.003-.07-.03-.107-.097-.128-.17-.035-.101-.256-.492-.474-.835z"/></g><path d="M0 0h12v12H0z"/></g></svg>