<svg width="12" height="12" viewBox="0 0 12 12" xmlns="http://www.w3.org/2000/svg"><title>instagram</title><path d="M10.64 10.14V5.079H9.587c.104.328.156.67.156 1.024 0 .656-.166 1.261-.5 1.816a3.645 3.645 0 0 1-1.36 1.316 3.754 3.754 0 0 1-1.874.485c-1.026 0-1.904-.353-2.633-1.059-.73-.706-1.094-1.558-1.094-2.558 0-.355.052-.696.156-1.024H1.337v5.063c0 .135.046.248.137.34a.461.461 0 0 0 .34.136h8.351c.13 0 .242-.045.336-.137a.455.455 0 0 0 .14-.34zM8.423 5.978c0-.646-.236-1.197-.707-1.653a2.367 2.367 0 0 0-1.707-.683c-.662 0-1.228.227-1.7.683a2.214 2.214 0 0 0-.706 1.653c0 .645.235 1.196.707 1.652a2.357 2.357 0 0 0 1.699.684c.666 0 1.235-.228 1.707-.684a2.214 2.214 0 0 0 .707-1.652zm2.219-2.813v-1.29a.524.524 0 0 0-.157-.379.514.514 0 0 0-.382-.16h-1.36a.514.514 0 0 0-.383.16.524.524 0 0 0-.156.379v1.29a.52.52 0 0 0 .156.382.52.52 0 0 0 .383.156h1.36a.52.52 0 0 0 .382-.156.52.52 0 0 0 .157-.383zM12 1.54v8.922c0 .422-.151.784-.453 1.086A1.481 1.481 0 0 1 10.46 12H1.539c-.422 0-.784-.151-1.086-.453A1.481 1.481 0 0 1 0 10.46V1.539C0 1.117.151.755.453.453A1.481 1.481 0 0 1 1.54 0h8.922c.422 0 .784.151 1.086.453.302.302.453.664.453 1.086z" fill="#FFF" fill-rule="evenodd"/></svg>