<svg xmlns="http://www.w3.org/2000/svg" viewBox="384 1877 52 48"><g fill="none" fill-rule="evenodd" transform="translate(384 1877)"><rect width="47" height="36" x="5" y="11" fill="#31CC93" rx="6"/><g fill="#000"><path d="M23.79 27.785a4.212 4.212 0 0 1-2.817-1.064L5.117 12.464a1 1 0 1 1 1.338-1.486L22.31 25.232c.816.735 2.145.735 2.962 0l15.855-14.254a.998.998 0 1 1 1.336 1.486L26.608 26.721a4.21 4.21 0 0 1-2.818 1.064zm-18.002 9.5a1 1 0 0 1-.64-1.77l10.62-8.833a.999.999 0 0 1 1.408.13 1 1 0 0 1-.13 1.409l-10.62 8.834a1 1 0 0 1-.638.23z"/><path d="M18.962 42H5.697C2.51 42 .012 39.55.012 36.424V11.582C.012 8.452 2.509 6 5.697 6h36.615c3.143 0 5.7 2.504 5.7 5.582v24.842c0 2.422-1.438 4.486-3.663 5.262a.994.994 0 0 1-1.273-.614.997.997 0 0 1 .613-1.273c1.41-.492 2.322-1.816 2.322-3.375V11.582C46.011 9.573 44.386 8 42.312 8H5.697c-2.066 0-3.685 1.573-3.685 3.582v24.842C2.012 38.43 3.63 40 5.697 40h13.265a1 1 0 1 1 0 2z"/><path d="M35.086 40.215a1 1 0 0 1-1-1V36.82c.002-.056.033-1.197-.719-1.748-.713-.523-2.015-.469-3.767.15a1.005 1.005 0 0 1-1.278-.609 1.003 1.003 0 0 1 .61-1.277c2.457-.87 4.351-.82 5.642.14 1.606 1.2 1.516 3.307 1.51 3.397l.002 2.342a1 1 0 0 1-1 1z"/><path d="M31.994 47.463c-5.38 0-9.76-4.346-9.76-9.69 0-5.343 4.38-9.689 9.76-9.689 4.967 0 9.137 3.691 9.697 8.588.178 1.855-.32 3.572-1.367 4.722a4.09 4.09 0 0 1-3.101 1.377c-1.188 0-1.897-.502-2.284-.923a2.841 2.841 0 0 1-.25-.315c-.98.76-2.326 1.229-3.546 1.238h-.034c-1.957 0-3.3-1.191-3.511-3.115-.157-1.424.435-2.252.957-2.695 1.982-1.682 6.312-.535 6.8-.399a.999.999 0 0 1 .266 1.807c.305.193.494.547.461.932-.014.197.018.857.334 1.199.062.066.254.271.807.271.642 0 1.187-.242 1.62-.72.659-.725.981-1.91.858-3.17-.441-3.868-3.756-6.797-7.707-6.797-4.28 0-7.76 3.449-7.76 7.689s3.48 7.69 7.76 7.69a7.74 7.74 0 0 0 4.586-1.487 1 1 0 0 1 1.176 1.617 9.721 9.721 0 0 1-5.762 1.87zm-.264-9.412c-.806 0-1.511.12-1.882.435-.157.133-.327.362-.262.952.062.574.289 1.334 1.523 1.334h.02c1.447-.01 2.902-1.038 2.96-1.653.03-.297.186-.55.409-.713-.828-.203-1.861-.355-2.768-.355z"/></g></g></svg>