<svg width="12" height="12" viewBox="0 0 12 12" xmlns="http://www.w3.org/2000/svg"><title>thin 0152 minus delete remove</title><g fill="none" fill-rule="evenodd"><g fill="#00233A"><path d="M6.001 11.465C2.725 11.465.06 8.906.06 5.76.06 2.616 2.725.058 6 .058s5.94 2.558 5.94 5.703c0 3.145-2.664 5.704-5.94 5.704zm0-10.927C3.001.538.56 2.88.56 5.76S3 10.985 6 10.985c3 0 5.44-2.344 5.44-5.224C11.44 2.881 9 .538 6 .538z"/><path d="M9.27 6.001H2.734a.245.245 0 0 1-.25-.24c0-.132.111-.24.25-.24h6.534c.138 0 .25.108.25.24 0 .133-.112.24-.25.24z"/></g><path d="M0 0h12v11.52H0z"/></g></svg>