<svg width="14" height="12" viewBox="0 0 14 12" xmlns="http://www.w3.org/2000/svg"><title>twitter</title><path d="M12.56 2.915a8.606 8.606 0 0 1-.329 2.755 8.684 8.684 0 0 1-1.025 2.27 8.854 8.854 0 0 1-1.639 1.923c-.633.558-1.397 1.002-2.292 1.334a8.178 8.178 0 0 1-2.869.498A7.808 7.808 0 0 1 0 10.371c.207.024.438.036.693.036a5.52 5.52 0 0 0 3.562-1.26 2.748 2.748 0 0 1-1.67-.59 2.886 2.886 0 0 1-1.013-1.458c.196.03.376.046.542.046.255 0 .507-.033.755-.1a2.81 2.81 0 0 1-1.648-1.02A2.901 2.901 0 0 1 .57 4.149v-.036c.402.231.835.356 1.296.374a2.92 2.92 0 0 1-.932-1.05 2.94 2.94 0 0 1-.347-1.408c0-.536.13-1.032.391-1.489a8.183 8.183 0 0 0 2.616 2.18 7.823 7.823 0 0 0 3.3.908 3.368 3.368 0 0 1-.07-.676c0-.816.28-1.512.839-2.088A2.727 2.727 0 0 1 9.692 0c.829 0 1.528.31 2.096.932A5.532 5.532 0 0 0 13.61.219c-.219.7-.64 1.243-1.261 1.627A5.592 5.592 0 0 0 14 1.389a6.109 6.109 0 0 1-1.44 1.526z" fill="#FFF" fill-rule="evenodd"/></svg>