<svg width="22" height="12" viewBox="0 0 22 12" xmlns="http://www.w3.org/2000/svg"><title>thin 0761 weather cloud</title><g fill="none" fill-rule="evenodd"><path d="M.344-3.683h18.635V13.99H.344z"/><path d="M17.813 11.896H7.38c-1.706 0-3.204-1.044-3.643-2.538-.413-1.402.207-2.796 1.619-3.673.487-2.288 2.563-3.931 5.002-3.931 1.128 0 2.2.354 3.11 1.024 1.94-.165 3.56.749 4.207 2.275 2.179-.035 4.078 1.531 4.078 3.421 0 1.855-1.804 3.422-3.94 3.422z" fill="#31CC93"/><path d="M14.793 10.26H4.361c-1.706 0-3.204-1.044-3.644-2.539-.412-1.402.207-2.795 1.62-3.673.485-2.288 2.563-3.93 5-3.93 1.128 0 2.2.353 3.111 1.024 1.939-.165 3.56.749 4.206 2.275 2.18-.035 4.078 1.53 4.078 3.42 0 1.856-1.804 3.423-3.94 3.423zM7.338.854c-2.116 0-3.91 1.464-4.268 3.48a.369.369 0 0 1-.182.255c-1.225.702-1.757 1.8-1.423 2.935.293.995 1.302 2 2.895 2h10.433c1.715 0 3.164-1.23 3.164-2.686 0-1.554-1.646-2.84-3.532-2.67a.377.377 0 0 1-.407-.256c-.36-1.088-1.556-2.268-3.64-2.022a.412.412 0 0 1-.295-.082A4.415 4.415 0 0 0 7.338.854z" fill="#000"/></g></svg>