<svg width="13" height="12" viewBox="0 0 13 12" xmlns="http://www.w3.org/2000/svg"><title>duration</title><g fill="none" fill-rule="evenodd"><path d="M1.733 1.195h10.648v10.273H1.733z"/><path d="M11.098 11.468h-8.15c-.704 0-1.215-.505-1.215-1.2v-7.89c0-.686.511-1.183 1.215-1.183h8.15c.731 0 1.283.508 1.283 1.183v7.889c0 .673-.564 1.2-1.283 1.2z" fill="#31CC93"/><g fill="#000"><path d="M9.364 10.273h-8.15C.511 10.273 0 9.768 0 9.073v-7.89C0 .498.51 0 1.214 0h8.15c.732 0 1.284.509 1.284 1.183v7.89c0 .673-.564 1.2-1.284 1.2zM1.214.428c-.46 0-.77.304-.77.755v7.89c0 .455.317.772.77.772h8.15c.48 0 .84-.332.84-.773V1.183c0-.43-.36-.755-.84-.755h-8.15z"/><path d="M.222 2.996h10.204v.428H.222z"/><path d="M1.775 3.19h.444v6.869h-.444zm2.218 0h.444v6.869h-.444zm2.218 0h.444v6.869h-.444zm2.218 0h.444v6.869h-.444z"/><path d="M.222 8.133h10.204v.428H.222zm0-1.712h10.204v.428H.222zm0-1.712h10.204v.428H.222zM3.39 2.096a.582.582 0 0 1-.59-.57.58.58 0 0 1 .59-.57.58.58 0 0 1 .591.57c0 .314-.265.57-.59.57zm0-.713a.145.145 0 0 0-.147.143c0 .078.066.142.147.142a.145.145 0 0 0 .148-.142.145.145 0 0 0-.148-.143zm3.867.713a.582.582 0 0 1-.59-.57.58.58 0 0 1 .59-.57.58.58 0 0 1 .591.57c0 .314-.265.57-.59.57zm0-.713a.145.145 0 0 0-.147.143c0 .078.066.142.147.142a.145.145 0 0 0 .148-.142.145.145 0 0 0-.148-.143z"/></g><path d="M0 0h10.648v10.273H0z"/></g></svg>