<svg xmlns="http://www.w3.org/2000/svg" viewBox="0 0 14 12"><g fill="none" fill-rule="evenodd" transform="translate(0 -1)"><rect width="12.654" height="9.8" x="1.346" y="2.994" fill="#31CC93" rx="4.9"/><g fill="#000"><path d="M6.405 7.564c-.273 0-.546-.097-.759-.29L1.378 3.393a.274.274 0 0 1-.02-.384c.1-.112.27-.12.38-.02l4.268 3.88c.22.2.578.2.798 0l4.269-3.88a.266.266 0 0 1 .38.02c.1.111.09.283-.02.384l-4.27 3.881c-.212.193-.485.29-.758.29zM1.558 10.15a.267.267 0 0 1-.207-.099.274.274 0 0 1 .035-.383l2.86-2.405a.267.267 0 0 1 .378.036.274.274 0 0 1-.034.383l-2.86 2.405a.268.268 0 0 1-.172.063z"/><path d="M5.105 11.433H1.534c-.859 0-1.53-.666-1.53-1.518V3.153c0-.852.671-1.52 1.53-1.52h9.858c.846 0 1.534.682 1.534 1.52v6.762c0 .66-.387 1.222-.986 1.433a.267.267 0 0 1-.343-.167.272.272 0 0 1 .165-.347c.38-.134.626-.494.626-.919V3.153a.975.975 0 0 0-.996-.975H1.534a.973.973 0 0 0-.992.975v6.762c0 .546.436.974.992.974h3.571a.27.27 0 0 1 .27.272.27.27 0 0 1-.27.272z"/><path d="M9.446 10.947a.27.27 0 0 1-.269-.272v-.652c0-.015.009-.326-.194-.476-.191-.142-.542-.127-1.014.041a.27.27 0 0 1-.344-.166.274.274 0 0 1 .164-.347c.662-.237 1.172-.224 1.52.038.432.326.407.9.406.925v.637a.27.27 0 0 1-.269.272z"/><path d="M8.614 12.92a2.636 2.636 0 0 1-2.628-2.637 2.636 2.636 0 0 1 2.628-2.638 2.629 2.629 0 0 1 2.61 2.338c.048.505-.086.972-.367 1.285-.22.246-.51.375-.836.375-.32 0-.51-.136-.614-.251a.772.772 0 0 1-.068-.086 1.637 1.637 0 0 1-.954.337h-.01c-.526 0-.888-.324-.945-.848-.042-.387.117-.613.258-.733.533-.458 1.7-.146 1.83-.109a.272.272 0 0 1 .072.492.274.274 0 0 1 .124.253c-.003.054.005.234.09.327.017.018.069.074.217.074.173 0 .32-.066.437-.196.177-.198.264-.52.23-.863a2.086 2.086 0 0 0-2.074-1.85 2.093 2.093 0 0 0 0 4.186c.448 0 .875-.14 1.234-.405a.267.267 0 0 1 .376.06.274.274 0 0 1-.06.38 2.598 2.598 0 0 1-1.55.51zm-.071-2.562c-.217 0-.407.033-.507.119-.042.036-.088.098-.07.259.016.156.077.363.41.363h.005c.39-.003.781-.282.797-.45.008-.08.05-.15.11-.194a3.279 3.279 0 0 0-.745-.097z"/></g></g></svg>