<svg width="12" height="12" viewBox="0 0 12 12" xmlns="http://www.w3.org/2000/svg"><title>thin 0151 plus add new</title><g fill="none" fill-rule="evenodd" opacity=".6"><g fill="#000"><path d="M5.713 11.465c-3.12 0-5.658-2.559-5.658-5.704C.055 2.616 2.593.058 5.713.058c3.12 0 5.658 2.558 5.658 5.703 0 3.145-2.538 5.704-5.658 5.704zm0-10.927C2.856.538.53 2.88.53 5.76s2.325 5.224 5.182 5.224 5.182-2.344 5.182-5.224c0-2.88-2.325-5.223-5.182-5.223z"/><path d="M5.748 9.17c-.15 0-.272-.108-.272-.24V2.592c0-.133.122-.24.272-.24.151 0 .273.107.273.24V8.93c0 .133-.122.24-.273.24z"/><path d="M8.856 6.067H2.571c-.132 0-.238-.122-.238-.273 0-.15.106-.273.238-.273h6.285c.132 0 .239.122.239.273 0 .15-.107.273-.239.273z"/></g><path d="M0 0h11.429v11.52H0z"/></g></svg>