<svg width="13" height="12" viewBox="0 0 13 12" xmlns="http://www.w3.org/2000/svg"><title>price</title><g fill="none" fill-rule="evenodd"><path d="M1.115 0h11.44v11.727H1.115z"/><path d="M7.1.273c-3.154 0-5.72 2.63-5.72 5.863C1.38 9.37 3.947 12 7.1 12s5.72-2.63 5.72-5.864c0-3.233-2.566-5.863-5.72-5.863z" fill="#31CC93"/><g fill="#000"><path d="M5.808 11.687C2.768 11.687.293 9.091.293 5.9.293 2.708 2.767.112 5.808.112c3.04 0 5.514 2.596 5.514 5.788 0 3.19-2.473 5.787-5.514 5.787zm0-11.084C3.025.603.762 2.98.762 5.9s2.263 5.296 5.046 5.296c2.782 0 5.046-2.376 5.046-5.296 0-2.921-2.264-5.297-5.046-5.297z"/><path d="M5.762 8.905c-.565 0-1.347-.34-1.858-.807a.254.254 0 0 1-.023-.346.226.226 0 0 1 .33-.024c.428.39 1.095.685 1.55.685.7 0 1.27-.508 1.27-1.134 0-.508-.412-.86-1.335-1.144-.829-.272-1.672-.676-1.672-1.615 0-.896.78-1.626 1.738-1.626.616 0 1.191.31 1.502.807.07.114.04.266-.068.34a.228.228 0 0 1-.324-.07c-.225-.361-.65-.585-1.11-.585-.7 0-1.27.509-1.27 1.134 0 .507.376.828 1.34 1.145.713.218 1.667.625 1.667 1.614 0 .897-.78 1.626-1.737 1.626z"/><path d="M5.762 9.659a.24.24 0 0 1-.234-.246V2.386a.24.24 0 0 1 .234-.246.24.24 0 0 1 .234.246v7.027a.24.24 0 0 1-.234.246z"/></g><path d="M.19.002h11.237v11.794H.19z"/><path d="M.19 0h11.237v11.794H.19z"/></g></svg>