<svg width="12" height="12" viewBox="0 0 12 12" xmlns="http://www.w3.org/2000/svg"><title>question circle</title><path d="M7 9.75v-1.5a.243.243 0 0 0-.07-.18.243.243 0 0 0-.18-.07h-1.5a.243.243 0 0 0-.18.07.243.243 0 0 0-.07.18v1.5c0 .073.023.133.07.18.047.047.107.07.18.07h1.5a.243.243 0 0 0 .18-.07.243.243 0 0 0 .07-.18zM9 4.5c0-.458-.145-.883-.434-1.273a2.963 2.963 0 0 0-1.082-.907A2.967 2.967 0 0 0 6.156 2c-1.265 0-2.232.555-2.898 1.664-.078.125-.057.234.062.328l1.032.781a.22.22 0 0 0 .148.047.23.23 0 0 0 .195-.093c.276-.355.5-.594.672-.72.177-.124.401-.187.672-.187.25 0 .473.068.668.203.195.136.293.29.293.461a.7.7 0 0 1-.156.477c-.104.12-.282.237-.532.351a2.676 2.676 0 0 0-.902.676c-.273.305-.41.632-.41.98v.282c0 .073.023.133.07.18.047.047.107.07.18.07h1.5a.243.243 0 0 0 .18-.07.243.243 0 0 0 .07-.18c0-.099.056-.228.168-.387a1.32 1.32 0 0 1 .426-.386c.166-.094.294-.168.383-.223a3.29 3.29 0 0 0 .359-.274c.151-.127.267-.252.348-.375A2.063 2.063 0 0 0 9 4.5zM12 6a5.87 5.87 0 0 1-.805 3.012 5.973 5.973 0 0 1-2.183 2.183A5.87 5.87 0 0 1 6 12a5.87 5.87 0 0 1-3.012-.805A5.973 5.973 0 0 1 .805 9.012 5.87 5.87 0 0 1 0 6a5.87 5.87 0 0 1 .805-3.012A5.973 5.973 0 0 1 2.988.805 5.87 5.87 0 0 1 6 0a5.87 5.87 0 0 1 3.012.805 5.973 5.973 0 0 1 2.183 2.183A5.87 5.87 0 0 1 12 6z" fill="#A73900" fill-rule="evenodd"/></svg>