<svg width="12" height="12" viewBox="0 0 12 12" xmlns="http://www.w3.org/2000/svg"><title>thin 0033 search find zoom</title><g fill="none" fill-rule="evenodd" opacity=".5"><g fill="#3A3F41"><path d="M11.031 11.848a.842.842 0 0 1-.599-.248L7.224 8.392l.354-.353 3.208 3.208a.344.344 0 0 0 .491 0 .348.348 0 0 0 0-.492L8.069 7.547l.353-.354 3.208 3.208a.849.849 0 0 1-.598 1.447z"/><path d="M4.767 9.35A4.618 4.618 0 0 1 .155 4.737 4.618 4.618 0 0 1 4.767.124 4.618 4.618 0 0 1 9.38 4.737 4.618 4.618 0 0 1 4.767 9.35zm0-8.726A4.117 4.117 0 0 0 .655 4.737 4.118 4.118 0 0 0 4.767 8.85 4.117 4.117 0 0 0 8.88 4.737 4.117 4.117 0 0 0 4.767.624z"/><path d="M1.801 5.234a.25.25 0 0 1-.25-.242 3.365 3.365 0 0 1 .992-2.517 3.353 3.353 0 0 1 2.517-.99.25.25 0 0 1 .241.257c-.004.138-.12.261-.258.242a2.862 2.862 0 0 0-2.147.845 2.87 2.87 0 0 0-.845 2.147.25.25 0 0 1-.241.258H1.8z"/></g><path d="M0 0h12v12H0z"/></g></svg>