<svg width="13" height="12" viewBox="0 0 13 12" xmlns="http://www.w3.org/2000/svg"><title>thin 0485 gauge dashboard speedometer odometer speed</title><g fill="none" fill-rule="evenodd"><path d="M7.313.375c-3.137 0-5.688 2.59-5.688 5.774s2.551 5.774 5.688 5.774c3.135 0 5.687-2.59 5.687-5.774S10.448.375 7.313.375z" fill="#31CC93"/><g fill="#000"><path d="M10.07 9.819a.241.241 0 0 1-.157-.057.248.248 0 0 1-.03-.347 5.33 5.33 0 0 0 .915-5.15C10.06 2.138 8.07.71 5.843.71 3.613.71 1.62 2.142.885 4.276a5.344 5.344 0 0 0-.296 1.743 5.33 5.33 0 0 0 1.216 3.396.248.248 0 0 1-.032.347.242.242 0 0 1-.343-.032A5.833 5.833 0 0 1 .424 4.114C1.227 1.783 3.405.217 5.844.217c2.432 0 4.608 1.561 5.414 3.885.217.626.327 1.271.327 1.917a5.8 5.8 0 0 1-.566 2.51 5.795 5.795 0 0 1-.762 1.201.242.242 0 0 1-.188.089z"/><path d="M7.546 10.938H4.14a.74.74 0 0 1-.735-.743v-.978a.74.74 0 0 1 .735-.742h3.405a.74.74 0 0 1 .735.742v.978a.74.74 0 0 1-.735.743zM4.14 8.968a.25.25 0 0 0-.248.25v.977c0 .138.112.25.248.25h3.405a.249.249 0 0 0 .247-.25v-.978c0-.138-.11-.25-.247-.25H4.14zm7.201-2.739H9.91a.245.245 0 0 1-.244-.246c0-.137.11-.247.244-.247h1.432c.135 0 .244.11.244.247a.245.245 0 0 1-.244.246zm-9.504 0H.345a.245.245 0 0 1-.244-.246c0-.137.11-.247.244-.247h1.492c.135 0 .244.11.244.247 0 .136-.11.246-.244.246zm-.755 2.778a.247.247 0 0 1-.122-.46l1.289-.752a.242.242 0 0 1 .333.09.247.247 0 0 1-.09.337l-1.288.752a.238.238 0 0 1-.122.033zm6.787-6.323a.247.247 0 0 1-.21-.37l.707-1.238a.243.243 0 0 1 .332-.09.247.247 0 0 1 .09.336l-.709 1.24a.242.242 0 0 1-.21.122zm-2.026-.533a.245.245 0 0 1-.243-.246V.463c0-.136.109-.246.243-.246.135 0 .244.11.244.246v1.442a.245.245 0 0 1-.244.246zm-2.01.559a.244.244 0 0 1-.211-.123l-.723-1.265a.248.248 0 0 1 .09-.336.242.242 0 0 1 .333.09l.722 1.265a.248.248 0 0 1-.09.336.24.24 0 0 1-.12.033zM2.37 4.203a.24.24 0 0 1-.121-.033l-1.27-.74a.248.248 0 0 1-.088-.337.242.242 0 0 1 .333-.09l1.268.74a.248.248 0 0 1 .09.337.243.243 0 0 1-.212.123zm8.252 4.809a.242.242 0 0 1-.122-.033l-1.26-.731a.248.248 0 0 1-.09-.336.242.242 0 0 1 .332-.091l1.261.731a.248.248 0 0 1 .09.336.243.243 0 0 1-.211.124zM5.845 6.46a.243.243 0 0 1-.244-.242c0-.068.025-.133.069-.177a.254.254 0 0 1 .346 0 .28.28 0 0 1 .073.177c0 .06-.025.124-.073.173a.261.261 0 0 1-.171.069z"/><path d="M5.843 7.37c-.629 0-1.14-.518-1.14-1.154 0-.636.511-1.153 1.14-1.153.63 0 1.141.517 1.141 1.153s-.511 1.153-1.14 1.153zm0-1.814a.657.657 0 0 0-.653.66c0 .364.293.66.653.66.36 0 .654-.296.654-.66a.657.657 0 0 0-.654-.66z"/><path d="M6.597 5.97a.243.243 0 0 1-.205-.112.248.248 0 0 1 .073-.34L9.64 3.445a.243.243 0 0 1 .337.073.248.248 0 0 1-.073.34L6.73 5.931a.239.239 0 0 1-.132.04z"/></g><path d="M0-1h11.7v11.823H0z"/></g></svg>