<svg xmlns="http://www.w3.org/2000/svg" viewBox="0 0 717 749"><g fill="none" fill-rule="evenodd"><path fill="#FFF" d="M391 403.087v1.903h-1.09c-.398 0-.667.087-.806.26-.139.173-.208.433-.208.779v1.363h2.035l-.271 2.134h-1.764V415h-2.125v-5.474H385v-2.134h1.77v-1.572c0-.895.242-1.588.723-2.08.482-.494 1.123-.74 1.924-.74.68 0 1.208.029 1.583.087zm20.56 2.828a8.606 8.606 0 0 1-.329 2.755 8.684 8.684 0 0 1-1.025 2.27 8.854 8.854 0 0 1-1.639 1.923c-.633.558-1.397 1.002-2.292 1.334a8.178 8.178 0 0 1-2.869.498 7.808 7.808 0 0 1-4.406-1.324c.207.024.438.036.693.036a5.52 5.52 0 0 0 3.562-1.26 2.748 2.748 0 0 1-1.67-.59 2.886 2.886 0 0 1-1.013-1.458c.196.03.376.046.542.046.255 0 .507-.033.755-.1a2.81 2.81 0 0 1-1.648-1.02 2.901 2.901 0 0 1-.652-1.877v-.036c.402.231.835.356 1.296.374a2.92 2.92 0 0 1-.932-1.05 2.94 2.94 0 0 1-.347-1.408c0-.536.13-1.032.391-1.489a8.183 8.183 0 0 0 2.616 2.18 7.823 7.823 0 0 0 3.3.908 3.368 3.368 0 0 1-.07-.676c0-.816.28-1.512.839-2.088a2.727 2.727 0 0 1 2.03-.863c.829 0 1.528.31 2.096.932a5.532 5.532 0 0 0 1.821-.713c-.219.7-.64 1.243-1.261 1.627a5.592 5.592 0 0 0 1.652-.457 6.109 6.109 0 0 1-1.44 1.526zm18.08 7.226v-5.063h-1.054c.104.328.156.67.156 1.024 0 .656-.166 1.261-.5 1.816a3.645 3.645 0 0 1-1.36 1.316 3.754 3.754 0 0 1-1.874.485c-1.026 0-1.904-.353-2.633-1.059-.73-.706-1.094-1.558-1.094-2.558 0-.355.052-.696.156-1.024h-1.101v5.063c0 .135.046.248.137.34a.461.461 0 0 0 .34.136h8.351c.13 0 .242-.045.336-.137a.455.455 0 0 0 .14-.34zm-2.218-4.164c0-.646-.236-1.197-.707-1.653a2.367 2.367 0 0 0-1.707-.683c-.662 0-1.228.227-1.7.683a2.214 2.214 0 0 0-.706 1.653c0 .645.235 1.196.707 1.652a2.357 2.357 0 0 0 1.699.683c.666 0 1.235-.227 1.707-.683a2.214 2.214 0 0 0 .707-1.652zm2.219-2.813v-1.289a.524.524 0 0 0-.157-.379.514.514 0 0 0-.382-.16h-1.36a.514.514 0 0 0-.383.16.524.524 0 0 0-.156.379v1.29a.52.52 0 0 0 .156.382.52.52 0 0 0 .383.156h1.36c.15 0 .278-.052.382-.156s.157-.232.157-.383zM431 404.54v8.922c0 .422-.151.784-.453 1.086a1.481 1.481 0 0 1-1.086.453h-8.922c-.422 0-.784-.151-1.086-.453a1.481 1.481 0 0 1-.453-1.086v-8.922c0-.422.151-.784.453-1.086a1.481 1.481 0 0 1 1.086-.453h8.922c.422 0 .784.151 1.086.453.302.302.453.664.453 1.086zm35.927 5.387l-3.39 3.492a.946.946 0 0 0 0 1.31.884.884 0 0 0 1.272 0l4.927-5.074A.94.94 0 0 0 470 409a.94.94 0 0 0-.264-.655l-4.927-5.072a.881.881 0 0 0-1.272 0 .946.946 0 0 0 0 1.31l3.39 3.49H449.5c-.276 0-.5.415-.5.927s.224.927.5.927h17.427z"/><path stroke="#FFF" stroke-width="1.2" d="M452 387l-6 6-6-6-6 6-6-6-6 6-6-6-6 6-6-6"/><path d="M249 419h-18v-18h18z"/><path fill="#FFF" d="M233 404l7 6.682 7-6.682 2 1.91-9 8.59-9-8.59"/><path d="M484.733 404.195h10.648v10.273h-10.648z"/><path fill="#31CC93" d="M494.098 414.468h-8.15c-.704 0-1.215-.505-1.215-1.2v-7.89c0-.686.511-1.183 1.215-1.183h8.15c.731 0 1.283.508 1.283 1.183v7.889c0 .673-.564 1.2-1.283 1.2z"/><g fill="#000"><path d="M492.364 413.273h-8.15c-.703 0-1.214-.505-1.214-1.2v-7.89c0-.685.51-1.183 1.214-1.183h8.15c.732 0 1.284.509 1.284 1.183v7.89c0 .673-.564 1.2-1.284 1.2zm-8.15-9.845c-.46 0-.77.304-.77.755v7.89c0 .455.317.772.77.772h8.15c.48 0 .84-.332.84-.773v-7.889c0-.43-.36-.755-.84-.755h-8.15z"/><path d="M483.222 405.996h10.204v.428h-10.204z"/><path d="M484.775 406.19h.443v6.87h-.443zm2.218 0h.444v6.87h-.444zm2.218 0h.444v6.87h-.444zm2.218 0h.444v6.87h-.444z"/><path d="M483.222 411.133h10.204v.428h-10.204zm0-1.712h10.204v.428h-10.204zm0-1.712h10.204v.428h-10.204zm3.168-2.613a.582.582 0 0 1-.59-.57.58.58 0 0 1 .59-.57.58.58 0 0 1 .591.57c0 .314-.265.57-.59.57zm0-.713a.145.145 0 0 0-.147.143c0 .078.066.142.147.142a.145.145 0 0 0 .148-.142.145.145 0 0 0-.148-.143zm3.867.713a.582.582 0 0 1-.59-.57c0-.315.265-.57.59-.57s.591.255.591.57c0 .314-.265.57-.59.57zm0-.713a.145.145 0 0 0-.147.143c0 .078.066.142.147.142a.145.145 0 0 0 .148-.142.145.145 0 0 0-.148-.143z"/></g><path d="M483 403h10.648v10.273H483zm-122.885 0h11.44v11.727h-11.44z"/><path fill="#31CC93" d="M366.1 403.273c-3.154 0-5.72 2.63-5.72 5.863 0 3.233 2.566 5.864 5.72 5.864s5.72-2.63 5.72-5.864c0-3.233-2.566-5.863-5.72-5.863z"/><g fill="#000"><path d="M364.808 414.687c-3.04 0-5.515-2.596-5.515-5.787 0-3.192 2.474-5.788 5.515-5.788 3.04 0 5.514 2.596 5.514 5.788 0 3.19-2.473 5.787-5.514 5.787zm0-11.084c-2.783 0-5.046 2.376-5.046 5.297 0 2.92 2.263 5.296 5.046 5.296 2.782 0 5.046-2.376 5.046-5.296 0-2.921-2.264-5.297-5.046-5.297z"/><path d="M364.762 411.905c-.565 0-1.347-.34-1.858-.807a.254.254 0 0 1-.023-.346.226.226 0 0 1 .33-.024c.428.39 1.095.685 1.55.685.7 0 1.27-.508 1.27-1.134 0-.508-.412-.86-1.335-1.144-.829-.272-1.672-.676-1.672-1.615 0-.896.78-1.626 1.738-1.626.616 0 1.191.31 1.502.807.07.114.04.266-.068.34a.228.228 0 0 1-.324-.07c-.225-.361-.65-.585-1.11-.585-.7 0-1.27.509-1.27 1.134 0 .507.376.828 1.34 1.145.713.218 1.667.625 1.667 1.614 0 .897-.78 1.626-1.737 1.626z"/><path d="M364.762 412.659a.24.24 0 0 1-.234-.246v-7.027a.24.24 0 0 1 .234-.246.24.24 0 0 1 .234.246v7.027a.24.24 0 0 1-.234.246z"/></g><path d="M359.19 403.002h11.237v11.794H359.19z"/><path d="M359.19 403h11.237v11.794H359.19z"/><path fill="#31CC93" stroke="#31CC93" stroke-width="1.186" d="M500.8 413.837l3.496-5.667 1.749 2.429 3.146-6.881 5.595 10.119z" stroke-linecap="round" stroke-linejoin="round"/><g fill="#000"><path d="M499.5 414.422a.271.271 0 0 1-.163-.056c-.14-.105-.179-.32-.088-.481l2.966-5.291a.297.297 0 0 1 .234-.158.286.286 0 0 1 .248.122l2.819 3.846a.387.387 0 0 1-.035.49c-.127.126-.316.107-.424-.04l-2.557-3.489-2.747 4.899a.293.293 0 0 1-.252.158z"/><path d="M512.959 414.152a.291.291 0 0 1-.25-.154l-5.128-8.815-2.875 6.45c-.076.17-.257.238-.405.15-.147-.089-.205-.3-.13-.47l3.109-6.972a.302.302 0 0 1 .25-.187.296.296 0 0 1 .266.153l5.412 9.302a.384.384 0 0 1-.081.484.272.272 0 0 1-.168.059z"/><path d="M508.585 409.106h-.01a.286.286 0 0 1-.221-.126l-.694-.971-.466.712a.288.288 0 0 1-.236.139c-.092.008-.182-.048-.24-.133l-.721-1.064a.386.386 0 0 1 .05-.488c.13-.12.32-.094.423.058l.48.709.46-.703a.29.29 0 0 1 .233-.139.33.33 0 0 1 .237.126l.72 1.007.607-.742a.273.273 0 0 1 .425-.014c.12.132.126.353.012.492l-.84 1.028a.283.283 0 0 1-.219.109z"/></g><path d="M499 401h14.433v16.709H499zm20.344-1.683h18.636v17.672h-18.636z"/><path fill="#31CC93" d="M536.813 414.896H526.38c-1.706 0-3.204-1.044-3.643-2.538-.413-1.402.207-2.796 1.619-3.673.487-2.288 2.563-3.931 5.002-3.931 1.128 0 2.2.354 3.11 1.024 1.94-.165 3.56.749 4.207 2.275 2.179-.035 4.078 1.531 4.078 3.421 0 1.855-1.804 3.422-3.94 3.422z"/><path fill="#000" d="M533.793 413.26h-10.432c-1.706 0-3.204-1.044-3.644-2.539-.412-1.402.207-2.795 1.62-3.673.486-2.288 2.563-3.93 5.001-3.93 1.128 0 2.2.353 3.111 1.024 1.939-.165 3.56.749 4.206 2.275 2.18-.035 4.078 1.53 4.078 3.42 0 1.856-1.804 3.423-3.94 3.423zm-7.455-9.406c-2.116 0-3.91 1.464-4.268 3.48a.369.369 0 0 1-.182.255c-1.225.702-1.757 1.8-1.423 2.935.293.995 1.302 2 2.895 2h10.433c1.715 0 3.164-1.23 3.164-2.686 0-1.554-1.646-2.84-3.532-2.67a.377.377 0 0 1-.407-.256c-.36-1.088-1.556-2.268-3.64-2.022a.412.412 0 0 1-.295-.082 4.415 4.415 0 0 0-2.745-.954z"/><path fill="#31CC93" d="M551.313 403.375c-3.137 0-5.688 2.59-5.688 5.774s2.551 5.774 5.688 5.774c3.135 0 5.687-2.59 5.687-5.774s-2.552-5.774-5.687-5.774z"/><g fill="#000"><path d="M554.07 412.819a.241.241 0 0 1-.157-.057.248.248 0 0 1-.03-.347 5.33 5.33 0 0 0 .915-5.15c-.738-2.127-2.729-3.556-4.955-3.556-2.23 0-4.223 1.433-4.958 3.567a5.344 5.344 0 0 0-.296 1.743 5.33 5.33 0 0 0 1.216 3.396.248.248 0 0 1-.032.347.242.242 0 0 1-.343-.032 5.833 5.833 0 0 1-1.006-5.616c.803-2.331 2.981-3.897 5.42-3.897 2.432 0 4.608 1.561 5.414 3.885.217.626.327 1.271.327 1.917a5.8 5.8 0 0 1-.566 2.51 5.795 5.795 0 0 1-.762 1.201.242.242 0 0 1-.188.089z"/><path d="M551.546 413.938h-3.405a.74.74 0 0 1-.735-.743v-.978a.74.74 0 0 1 .735-.742h3.405a.74.74 0 0 1 .735.742v.978a.74.74 0 0 1-.735.743zm-3.405-1.97a.25.25 0 0 0-.248.25v.977c0 .138.112.25.248.25h3.405a.249.249 0 0 0 .247-.25v-.978c0-.138-.11-.25-.247-.25h-3.405zm7.2-2.74h-1.432a.246.246 0 1 1 0-.493h1.432c.135.001.244.111.244.248s-.109.246-.244.246zm-9.504 0h-1.492a.246.246 0 1 1 0-.493h1.492c.135.001.244.111.244.248s-.11.246-.244.246zm-.755 2.779a.247.247 0 0 1-.122-.46l1.289-.752a.242.242 0 0 1 .333.09.247.247 0 0 1-.09.337l-1.288.752a.238.238 0 0 1-.122.033zm6.787-6.323a.247.247 0 0 1-.21-.37l.707-1.238a.243.243 0 0 1 .332-.09.247.247 0 0 1 .09.336l-.709 1.24a.242.242 0 0 1-.21.122zm-2.026-.533a.245.245 0 0 1-.243-.246v-1.442c0-.136.109-.246.243-.246s.244.11.244.246v1.442a.245.245 0 0 1-.244.246zm-2.01.56a.244.244 0 0 1-.211-.124l-.723-1.265a.248.248 0 0 1 .09-.336.242.242 0 0 1 .333.09l.722 1.265a.248.248 0 0 1-.09.336.24.24 0 0 1-.12.033zm-1.463 1.492a.24.24 0 0 1-.121-.033l-1.27-.74a.248.248 0 0 1-.088-.337.242.242 0 0 1 .333-.09l1.268.74a.248.248 0 0 1 .09.337.243.243 0 0 1-.212.123zm8.252 4.809a.242.242 0 0 1-.122-.033l-1.26-.731a.248.248 0 0 1-.09-.336.242.242 0 0 1 .332-.091l1.261.731a.248.248 0 0 1 .09.336.243.243 0 0 1-.211.124zm-4.777-2.552a.243.243 0 0 1-.244-.242c0-.068.025-.133.069-.177a.254.254 0 0 1 .346 0 .28.28 0 0 1 .073.177c0 .06-.025.124-.073.173a.261.261 0 0 1-.171.069z"/><path d="M549.843 410.37c-.629 0-1.14-.518-1.14-1.154 0-.636.511-1.153 1.14-1.153.63 0 1.141.517 1.141 1.153s-.511 1.153-1.14 1.153zm0-1.814a.657.657 0 0 0-.653.66c0 .364.293.66.653.66s.654-.296.654-.66a.657.657 0 0 0-.654-.66z"/><path d="M550.597 408.97a.243.243 0 0 1-.205-.112.248.248 0 0 1 .073-.34l3.175-2.072a.243.243 0 0 1 .337.073.248.248 0 0 1-.073.34l-3.175 2.072a.239.239 0 0 1-.132.04z"/></g><path d="M544 402h11.7v11.823H544z"/><path fill="#A73900" d="M567 412.75v-1.5c0-.073-.023-.133-.07-.18s-.107-.07-.18-.07h-1.5c-.073 0-.133.023-.18.07s-.07.107-.07.18v1.5c0 .073.023.133.07.18s.107.07.18.07h1.5c.073 0 .133-.023.18-.07s.07-.107.07-.18zm2-5.25c0-.458-.145-.883-.434-1.273s-.65-.693-1.082-.907a2.967 2.967 0 0 0-1.328-.32c-1.265 0-2.232.555-2.898 1.664-.078.125-.057.234.062.328l1.032.781a.22.22 0 0 0 .148.047.23.23 0 0 0 .195-.093c.276-.355.5-.594.672-.72.177-.124.401-.187.672-.187.25 0 .473.068.668.203s.293.29.293.461a.7.7 0 0 1-.156.477c-.104.12-.282.237-.532.351-.328.146-.628.372-.902.676s-.41.632-.41.98v.282c0 .073.023.133.07.18s.107.07.18.07h1.5c.073 0 .133-.023.18-.07s.07-.107.07-.18c0-.099.056-.228.168-.387a1.32 1.32 0 0 1 .426-.386c.166-.094.294-.168.383-.223.088-.055.208-.146.359-.274s.267-.252.348-.375A2.063 2.063 0 0 0 569 407.5zm3 1.5a5.87 5.87 0 0 1-.805 3.012c-.536.919-1.264 1.647-2.183 2.183S567.089 415 566 415a5.87 5.87 0 0 1-3.012-.805 5.973 5.973 0 0 1-2.183-2.183A5.87 5.87 0 0 1 560 409a5.87 5.87 0 0 1 .805-3.012 5.973 5.973 0 0 1 2.183-2.183A5.87 5.87 0 0 1 566 403a5.87 5.87 0 0 1 3.012.805c.919.536 1.647 1.264 2.183 2.183S572 407.911 572 409z"/><g fill="#000"><path d="M583.755 414.5h-9.5a.25.25 0 0 1-.25-.25v-6.893a.25.25 0 1 1 .5 0V414h9v-6.643a.25.25 0 1 1 .5 0v6.893a.25.25 0 0 1-.25.25z"/><path d="M583.255 407.144a.25.25 0 0 1-.25-.25V404h-2v.769a.25.25 0 1 1-.5 0v-1.019a.25.25 0 0 1 .25-.25h2.5a.25.25 0 0 1 .25.25v3.144a.25.25 0 0 1-.25.25z"/><path d="M573.28 408.433a.25.25 0 0 1-.163-.44l5.725-4.917a.25.25 0 0 1 .326 0l5.725 4.917a.25.25 0 0 1-.327.38l-5.561-4.777-5.562 4.776a.249.249 0 0 1-.163.06z"/><path d="M578.957 412.527a2.57 2.57 0 0 1-1.233-.297c-1.089-.484-.992-1.528-.914-2.366.042-.45.08-.877-.037-1.2a.3.3 0 0 1 .103-.345.305.305 0 0 1 .166-.054c.27 0 .683.644.963 1.145.019-.127.035-.266.052-.408.1-.846.225-1.9 1.062-2.402a.36.36 0 0 1 .155-.043c.167 0 .303.135.303.302 0 .318 0 1.113.125 1.754.2-.367.524-.762 1.005-.842a.31.31 0 0 1 .323.172.304.304 0 0 1-.045.322c-.39.455-.218.943-.038 1.46.105.298.204.58.191.859.04.47-.106.917-.425 1.262-.393.426-1.05.681-1.756.681zm-1.607-3.238a8.631 8.631 0 0 1-.042.621c-.088.949-.089 1.548.64 1.873.29.161.64.244 1.008.244.57 0 1.09-.194 1.39-.52.224-.243.323-.551.294-.914.007-.214-.076-.451-.164-.703-.131-.373-.283-.806-.208-1.25-.176.247-.298.56-.352.764a.25.25 0 0 1-.463.052c-.227-.433-.347-1.13-.371-2.173-.37.441-.453 1.144-.528 1.778-.056.47-.104.875-.272 1.13a.252.252 0 0 1-.13.1c-.067.036-.13.032-.2.003-.07-.03-.107-.097-.128-.17-.035-.101-.256-.492-.474-.835z"/></g><path d="M573 403h12v12h-12z"/><g fill="#000"><path d="M600.542 413.57h-10.084a.235.235 0 0 1-.229-.24c0-.133.103-.24.23-.24h10.083c.126 0 .229.107.229.24 0 .132-.103.24-.23.24zm-.508-.96h-9.121a.235.235 0 0 1-.23-.24c0-2.909 2.015-5.02 4.79-5.02 2.776 0 4.79 2.111 4.79 5.02 0 .132-.102.24-.229.24zm-8.887-.48h8.653c-.107-2.506-1.894-4.3-4.327-4.3s-4.219 1.794-4.326 4.3zm4.866-4.96a.235.235 0 0 1-.23-.24c0-.596-.62-.597-.62 0 0 .132-.102.24-.229.24a.235.235 0 0 1-.229-.24c0-.341.126-.552.231-.669.406-.449 1.306-.25 1.306.669 0 .132-.103.24-.23.24z"/><path d="M592.437 411.459a.219.219 0 0 1-.064-.01.242.242 0 0 1-.156-.297c.345-1.245 1.006-2.095 1.963-2.526a.225.225 0 0 1 .301.125.244.244 0 0 1-.12.316c-.837.377-1.394 1.103-1.704 2.219a.23.23 0 0 1-.22.173zm3.036-6.084a.235.235 0 0 1-.229-.24V403.3c0-.133.102-.24.23-.24.126 0 .228.107.228.24v1.836c0 .133-.102.24-.229.24zm2.62 1.143a.224.224 0 0 1-.158-.067.248.248 0 0 1-.006-.34l1.36-1.483a.222.222 0 0 1 .324-.007.248.248 0 0 1 .006.34l-1.36 1.483a.223.223 0 0 1-.165.074zm-5.24 0a.223.223 0 0 1-.165-.074l-1.36-1.484a.248.248 0 0 1 .006-.34.222.222 0 0 1 .324.008l1.36 1.484a.248.248 0 0 1-.006.339.223.223 0 0 1-.159.067zm6.596 8.011h-7.951a.227.227 0 0 1-.194-.112l-.576-.96a.25.25 0 0 1-.006-.244.227.227 0 0 1 .2-.124h9.103c.083 0 .16.048.2.124a.25.25 0 0 1-.006.244l-.576.96a.228.228 0 0 1-.194.112zm-7.825-.48h7.698l.288-.48h-8.274l.288.48z"/></g><path d="M590 403.01h11v11.52h-11z"/><g opacity=".5"><g fill="#3A3F41"><path d="M634.031 414.848a.842.842 0 0 1-.599-.248l-3.208-3.208.354-.353 3.208 3.208a.344.344 0 0 0 .491 0 .348.348 0 0 0 0-.492l-3.208-3.208.353-.354 3.208 3.208a.849.849 0 0 1-.598 1.447zm-6.264-2.498c-2.543 0-4.612-2.07-4.612-4.613s2.069-4.613 4.612-4.613c2.544 0 4.613 2.07 4.613 4.613s-2.07 4.613-4.613 4.613zm0-8.726a4.117 4.117 0 0 0-4.112 4.113c0 2.267 1.844 4.113 4.112 4.113s4.113-1.846 4.113-4.113a4.117 4.117 0 0 0-4.113-4.113z"/><path d="M624.801 408.234a.25.25 0 0 1-.25-.242 3.365 3.365 0 0 1 .991-2.517 3.353 3.353 0 0 1 2.518-.99.25.25 0 0 1 .241.257c-.004.138-.12.261-.258.242a2.862 2.862 0 0 0-2.147.845 2.87 2.87 0 0 0-.845 2.147.25.25 0 0 1-.241.258h-.009z"/></g><path d="M623 403h12v12h-12z"/></g><g fill="#00233A"><path d="M615.001 414.465c-3.276 0-5.941-2.559-5.941-5.704 0-3.145 2.665-5.703 5.941-5.703s5.94 2.558 5.94 5.703c0 3.145-2.664 5.704-5.94 5.704zm0-10.927c-3 0-5.441 2.343-5.441 5.223s2.44 5.224 5.441 5.224c3 0 5.44-2.344 5.44-5.224 0-2.88-2.44-5.223-5.44-5.223z"/><path d="M618.27 409.001h-6.535a.245.245 0 0 1-.25-.24c0-.132.111-.24.25-.24h6.534c.138 0 .25.108.25.24 0 .133-.112.24-.25.24z"/></g><path d="M609 403h12v11.52h-12z"/><g opacity=".6"><g fill="#000"><path d="M642.713 414.465c-3.12 0-5.658-2.559-5.658-5.704 0-3.145 2.538-5.703 5.658-5.703s5.658 2.558 5.658 5.703c0 3.145-2.538 5.704-5.658 5.704zm0-10.927c-2.857 0-5.182 2.343-5.182 5.223s2.325 5.224 5.182 5.224 5.182-2.344 5.182-5.224c0-2.88-2.325-5.223-5.182-5.223z"/><path d="M642.748 412.17c-.15 0-.272-.108-.272-.24v-6.337c0-.133.122-.24.272-.24s.273.107.273.24v6.336c0 .133-.122.24-.273.24z"/><path d="M645.856 409.067h-6.285c-.132 0-.238-.122-.238-.273 0-.15.106-.273.238-.273h6.285c.132 0 .239.122.239.273 0 .15-.107.273-.239.273z"/></g><path d="M637 403h11.429v11.52H637z"/></g><path fill="#FFF" d="M660.05 415.155h4.186L667.053 403h-3.14l-3.863 12.155zm-8.05 0h4.186L659.003 403h-3.14L652 415.155z" opacity=".107"/><path fill="#003A59" d="M682.214 402.862l-6.25 7.193-3.125-2.697-1.786 1.798 4.018 5.844h1.786L684 404.21"/><g transform="translate(328 402)"><rect width="12.654" height="9.8" x="1.346" y="2.994" fill="#31CC93" rx="4.9"/><g fill="#000"><path d="M6.405 7.564c-.273 0-.546-.097-.759-.29L1.378 3.393a.274.274 0 0 1-.02-.384c.1-.112.27-.12.38-.02l4.268 3.88c.22.2.578.2.798 0l4.269-3.88a.266.266 0 0 1 .38.02c.1.111.09.283-.02.384l-4.27 3.881c-.212.193-.485.29-.758.29zM1.558 10.15a.267.267 0 0 1-.207-.099.274.274 0 0 1 .035-.383l2.86-2.405a.267.267 0 0 1 .378.036.274.274 0 0 1-.034.383l-2.86 2.405a.268.268 0 0 1-.172.063z"/><path d="M5.105 11.433H1.534c-.859 0-1.53-.666-1.53-1.518V3.153c0-.852.671-1.52 1.53-1.52h9.858c.846 0 1.534.682 1.534 1.52v6.762c0 .66-.387 1.222-.986 1.433a.267.267 0 0 1-.343-.167.272.272 0 0 1 .165-.347c.38-.134.626-.494.626-.919V3.153a.975.975 0 0 0-.996-.975H1.534a.973.973 0 0 0-.992.975v6.762c0 .546.436.974.992.974h3.571a.27.27 0 0 1 .27.272.27.27 0 0 1-.27.272z"/><path d="M9.446 10.947a.27.27 0 0 1-.269-.272v-.652c0-.015.009-.326-.194-.476-.191-.142-.542-.127-1.014.041a.27.27 0 0 1-.344-.166.274.274 0 0 1 .164-.347c.662-.237 1.172-.224 1.52.038.432.326.407.9.406.925v.637a.27.27 0 0 1-.269.272z"/><path d="M8.614 12.92a2.636 2.636 0 0 1-2.628-2.637 2.636 2.636 0 0 1 2.628-2.638 2.629 2.629 0 0 1 2.61 2.338c.048.505-.086.972-.367 1.285-.22.246-.51.375-.836.375-.32 0-.51-.136-.614-.251a.772.772 0 0 1-.068-.086 1.637 1.637 0 0 1-.954.337h-.01c-.526 0-.888-.324-.945-.848-.042-.387.117-.613.258-.733.533-.458 1.7-.146 1.83-.109a.272.272 0 0 1 .072.492.274.274 0 0 1 .124.253c-.003.054.005.234.09.327.017.018.069.074.217.074.173 0 .32-.066.437-.196.177-.198.264-.52.23-.863a2.086 2.086 0 0 0-2.074-1.85 2.093 2.093 0 0 0 0 4.186c.448 0 .875-.14 1.234-.405a.267.267 0 0 1 .376.06.274.274 0 0 1-.059.38 2.598 2.598 0 0 1-1.551.51zm-.071-2.562c-.217 0-.407.033-.507.119-.042.036-.088.098-.07.259.016.156.077.363.41.363h.005c.39-.003.781-.282.797-.45.008-.08.05-.15.11-.194a3.279 3.279 0 0 0-.745-.097z"/></g><path d="M0 0h12.923v13.067H0z"/></g><g transform="translate(692.053 402)"><rect width="13.111" height="8.696" x="1.836" y="3.805" fill="#31CC93" rx="3"/><g fill="#000"><path d="M11.699 5.015h-4.18a.305.305 0 0 1-.3-.31c0-.171.134-.31.3-.31h4.18c.166 0 .3.139.3.31s-.134.31-.3.31z"/><path d="M13.183 11.843H6.901c-.166 0-.3-.138-.3-.31s.134-.31.3-.31h6.282c.03 0 .121 0 .142-.01.018-.013.115-.122.206-.893.2-1.72.2-4.516 0-6.235-.11-.93-.2-.93-.348-.93H6.901c-.166 0-.3-.138-.3-.31s.134-.309.3-.309h6.282c.664 0 .822.435.944 1.475.206 1.76.206 4.622 0 6.383-.12 1.022-.277 1.45-.944 1.45zm-11.698 0h-.256c-.667 0-.825-.427-.944-1.45-.206-1.759-.206-4.622 0-6.382.121-1.04.28-1.475.944-1.475h.256c.166 0 .3.139.3.31 0 .171-.134.31-.3.31h-.256c-.15 0-.239 0-.348.93C.68 5.803.68 8.6.881 10.32c.09.771.188.88.206.894.02.01.112.01.142.01h.256c.166 0 .3.138.3.31s-.134.31-.3.31zm3.528 1.254h-1.64c-.544 0-.987-.461-.987-1.028V2.356c0-.567.443-1.028.986-1.028h1.641c.544 0 .986.46.986 1.028v9.713c0 .567-.442 1.028-.986 1.028zm-1.64-11.15c-.213 0-.386.184-.386.409v9.713c0 .225.173.408.385.408h1.641c.212 0 .385-.183.385-.408V2.356c0-.225-.173-.409-.385-.409h-1.64z"/><path d="M8.096 6.874H7.52a.305.305 0 0 1-.3-.31c0-.171.134-.31.3-.31h.577c.166 0 .3.139.3.31s-.134.31-.3.31zm0 1.239H7.52c-.166 0-.3-.139-.3-.31s.134-.31.3-.31h.577c.166 0 .3.139.3.31s-.134.31-.3.31zm0 1.24H7.52c-.166 0-.3-.14-.3-.31s.134-.31.3-.31h.577c.166 0 .3.138.3.31s-.134.31-.3.31zM9.9 6.872h-.578a.305.305 0 0 1-.3-.309c0-.171.134-.31.3-.31H9.9c.166 0 .3.139.3.31s-.134.31-.3.31zm0 1.24h-.578c-.166 0-.3-.139-.3-.31s.134-.31.3-.31H9.9c.166 0 .3.139.3.31s-.134.31-.3.31zm0 1.24h-.578c-.166 0-.3-.14-.3-.31s.134-.31.3-.31H9.9c.166 0 .3.138.3.31s-.134.31-.3.31zm1.802-2.48h-.577a.305.305 0 0 1-.3-.309c0-.171.134-.31.3-.31h.577c.167 0 .3.139.3.31s-.133.31-.3.31zm0 1.24h-.577c-.166 0-.3-.139-.3-.31s.134-.31.3-.31h.577c.167 0 .3.139.3.31s-.133.31-.3.31zm0 1.24h-.577c-.166 0-.3-.14-.3-.31s.134-.31.3-.31h.577c.167 0 .3.138.3.31s-.133.31-.3.31z"/></g><path d="M0 .075h14.423v14.87H0z"/></g><g transform="translate(303 401)"><rect width="14.069" height="6.818" x="1.931" y="3.273" fill="#31CC93" rx="1"/><g fill="#000"><path d="M9.358 9.375H.632c-.175 0-.316-.14-.316-.313s.141-.312.316-.312h8.726c.175 0 .316.14.316.313s-.141.312-.316.312zm5.498 0h-4.059c-.175 0-.316-.14-.316-.313s.141-.312.316-.312h3.743V2.5H.632c-.175 0-.316-.14-.316-.313s.141-.312.316-.312h14.224c.175 0 .316.14.316.313v6.874a.314.314 0 0 1-.316.313z"/><path d="M11.75 13.422a.472.472 0 0 1-.406-.231l-.602-1.045-.352.348c-.25.248-.733.096-.791-.248l-.745-4.219a.454.454 0 0 1 .102-.375.483.483 0 0 1 .673-.047l3.26 2.894a.459.459 0 0 1-.223.798l-.31.06.593.773a.461.461 0 0 1-.111.662l-.828.551a.473.473 0 0 1-.26.08zm-.938-2.1c.014 0 .028.002.042.004.098.013.184.07.233.155l.717 1.246.536-.356-.793-1.034a.31.31 0 0 1 .191-.495l.483-.095L9.56 8.382l.608 3.449.422-.417a.316.316 0 0 1 .223-.091zm.24-4.436a.504.504 0 0 1-.406-.204l-1.23-1.5a.491.491 0 0 1 .02-.63.501.501 0 0 1 .376-.17h2.48a.497.497 0 0 1 .405.787l-1.25 1.526a.496.496 0 0 1-.395.191zm-.965-1.88l.965 1.179.966-1.179h-1.931zM7.269 9.308a.314.314 0 0 1-.316-.312V2.188c0-.173.142-.313.316-.313.175 0 .317.14.317.313v6.807a.314.314 0 0 1-.317.312z"/></g><path d="M0 0h15.172v15H0z"/></g><path fill="#BFBFBF" d="M271.5 409.5v-1a.48.48 0 0 0-.148-.352A.48.48 0 0 0 271 408h-2v-2a.48.48 0 0 0-.148-.352.48.48 0 0 0-.352-.148h-1a.48.48 0 0 0-.352.148.48.48 0 0 0-.148.352v2h-2a.48.48 0 0 0-.352.148.48.48 0 0 0-.148.352v1c0 .135.05.253.148.352A.48.48 0 0 0 265 410h2v2c0 .135.05.253.148.352a.48.48 0 0 0 .352.148h1a.48.48 0 0 0 .352-.148A.48.48 0 0 0 269 412v-2h2a.48.48 0 0 0 .352-.148.48.48 0 0 0 .148-.352zm2.5-.5a5.87 5.87 0 0 1-.805 3.012c-.536.919-1.264 1.647-2.183 2.183S269.089 415 268 415a5.87 5.87 0 0 1-3.012-.805 5.973 5.973 0 0 1-2.183-2.183A5.87 5.87 0 0 1 262 409a5.87 5.87 0 0 1 .805-3.012 5.973 5.973 0 0 1 2.183-2.183A5.87 5.87 0 0 1 268 403a5.87 5.87 0 0 1 3.012.805c.919.536 1.647 1.264 2.183 2.183S274 407.911 274 409zm17.5.5v-1a.48.48 0 0 0-.148-.352A.48.48 0 0 0 291 408h-6a.48.48 0 0 0-.352.148.48.48 0 0 0-.148.352v1c0 .135.05.253.148.352A.48.48 0 0 0 285 410h6a.48.48 0 0 0 .352-.148.48.48 0 0 0 .148-.352zm2.5-.5a5.87 5.87 0 0 1-.805 3.012c-.536.919-1.264 1.647-2.183 2.183S289.089 415 288 415a5.87 5.87 0 0 1-3.012-.805 5.973 5.973 0 0 1-2.183-2.183A5.87 5.87 0 0 1 282 409a5.87 5.87 0 0 1 .805-3.012 5.973 5.973 0 0 1 2.183-2.183A5.87 5.87 0 0 1 288 403a5.87 5.87 0 0 1 3.012.805c.919.536 1.647 1.264 2.183 2.183S294 407.911 294 409z"/></g></svg>