<svg xmlns="http://www.w3.org/2000/svg">
    <defs>
        <style>
            <![CDATA[ .sprite {
            display: none;
        }

        .sprite:target {
            display: inline;
        }

        ]]>
        </style>
    </defs>
    <g id="decor" class="sprite">
        <path fill="#484848" fill-rule="evenodd"
              d="M42.575736 6.575736h.848528l-6-6L37 .151472l-.424264.424264-6 6h.848528l-6-6L25 .151472l-.424264.424264-6 6h.848528l-6-6L13 .151472l-.424264.424264-6 6h.848528l-6-6-.848528.848528 6 6L7 7.848528l.424264-.424264 6-6h-.848528l6 6L19 7.848528l.424264-.424264 6-6h-.848528l6 6L31 7.848528l.424264-.424264 6-6h-.848528l6 6L43 7.848528l.424264-.424264 6-6-.848528-.848528"/>
    </g>
    <g id="decor-white" class="sprite">
        <path fill="#fff" fill-rule="evenodd"
              d="M42.575736 6.575736h.848528l-6-6L37 .151472l-.424264.424264-6 6h.848528l-6-6L25 .151472l-.424264.424264-6 6h.848528l-6-6L13 .151472l-.424264.424264-6 6h.848528l-6-6-.848528.848528 6 6L7 7.848528l.424264-.424264 6-6h-.848528l6 6L19 7.848528l.424264-.424264 6-6h-.848528l6 6L31 7.848528l.424264-.424264 6-6h-.848528l6 6L43 7.848528l.424264-.424264 6-6-.848528-.848528"/>
    </g>
    <g id="arrow-right" class="sprite">
        <path fill="none" d="M0 0h24v24H0z"/>
        <path fill="#FFF" fill-rule="evenodd"
              d="M20.293 12.736275l-1.8838 1.8838c-.1953.1953-.1953.5117 0 .707.0976.0977.2256.1465.3535.1465.1279 0 .2559-.0488.3535-.1465l2.72698-2.72698c.096586-.09113.15682-.220363.15682-.36382 0-.14349-.060262-.27275-.156888-.363885L19.1162 9.146475c-.1953-.1953-.5117-.1953-.707 0-.1953.1953-.1953.5117 0 .707l1.88359 1.8828H2.5c-.2764 0-.5.2236-.5.5s.2236.5.5.5h17.793z"/>
    </g>
    <g id="decor" class="sprite">
        <path fill="#484848" fill-rule="evenodd"
              d="M42.575736 6.575736h.848528l-6-6L37 .151472l-.424264.424264-6 6h.848528l-6-6L25 .151472l-.424264.424264-6 6h.848528l-6-6L13 .151472l-.424264.424264-6 6h.848528l-6-6-.848528.848528 6 6L7 7.848528l.424264-.424264 6-6h-.848528l6 6L19 7.848528l.424264-.424264 6-6h-.848528l6 6L31 7.848528l.424264-.424264 6-6h-.848528l6 6L43 7.848528l.424264-.424264 6-6-.848528-.848528"/>
    </g>
    <g id="plus" opacity=".6" class="sprite" fill="#000">
        <path d="M5.712905 11.464704C2.593 11.464704.054667 8.906256.054667 5.76144c0-3.145056 2.53838-5.703744 5.658238-5.703744 3.119857 0 5.658 2.558688 5.658 5.703744 0 3.144816-2.538143 5.703264-5.658 5.703264zm0-10.927056c-2.85738 0-5.182048 2.343264-5.182048 5.223744 0 2.88 2.324667 5.223264 5.182048 5.223264 2.857143 0 5.18181-2.343264 5.18181-5.223264 0-2.880432-2.324667-5.223744-5.18181-5.223744z"/>
        <path d="M5.748442 9.1692c-.150764 0-.272728-.107328-.272728-.24V2.593104c0-.132672.121964-.24.272728-.24.150763 0 .272727.107328.272727.24V8.9292c0 .132672-.121967.24-.27273.24z"/>
        <path d="M8.856476 6.066847h-6.28557c-.13162 0-.238096-.121964-.238096-.272728s.106476-.27273.238095-.27273h6.28557c.13162 0 .238096.121964.238096.272727 0 .150763-.106473.272727-.238092.272727z"/>
    </g>
    <g id="minus" class="sprite" fill="#00233A">
        <path d="M6.001 11.464704c-3.2759 0-5.94115-2.558448-5.94115-5.703264 0-3.145056 2.6653-5.703744 5.94115-5.703744 3.27585 0 5.9409 2.558688 5.9409 5.703744 0 3.144816-2.66505 5.703264-5.9409 5.703264zm0-10.927056c-3.00025 0-5.44115 2.343264-5.44115 5.223744 0 2.88 2.4409 5.223264 5.44115 5.223264 3 0 5.4409-2.343264 5.4409-5.223264C11.4419 2.88096 9.001.537648 6.001.537648z"/>
        <path d="M9.26905 6.001392H2.7346c-.1382 0-.25-.107328-.25-.24 0-.132672.1118-.24.25-.24H9.269c.1382 0 .25.107328.25.24 0 .132672-.11175.24-.24995.24z"/>
    </g>
    <g id="quote" class="sprite">
        <path fill="#3A3F41" fill-rule="evenodd" d="M50 75.5h26L93.5 0H74L50 75.5zm-50 0h26L43.5 0H24L0 75.5z"
              opacity=".11"/>
    </g>
    <g id="down-arrow" class="sprite">
        <path fill="#fff" d="M2 0l7 6.681818L16 0l2 1.90909L9 10.5 0 1.90909"/>
    </g>
    <g id="down-arrow-black" class="sprite">
        <path opacity="0.5" fill="#000" d="M2 0l7 6.681818L16 0l2 1.90909L9 10.5 0 1.90909"/>
    </g>
</svg>